<svg width="245" height="67" viewBox="0 0 245 67" fill="none" xmlns="http://www.w3.org/2000/svg">
<path d="M18.036 29.132H18.972V35H1.728V34.064L3.708 33.848C4.092 33.8 4.32 33.704 4.392 33.56C4.464 33.416 4.5 32.924 4.5 32.084V13.436C4.5 12.596 4.464 12.104 4.392 11.96C4.32 11.816 4.092 11.72 3.708 11.672L1.728 11.492V10.52H18.504V16.388H17.604L16.56 12.608C16.488 12.32 16.404 12.116 16.308 11.996C16.236 11.852 16.08 11.768 15.84 11.744C15.6 11.696 15.192 11.672 14.616 11.672H7.632V22.076H12.456C13.032 22.076 13.44 22.064 13.68 22.04C13.92 21.992 14.076 21.908 14.148 21.788C14.244 21.644 14.328 21.428 14.4 21.14L15.084 18.44H16.02V26.864H15.084L14.4 24.164C14.328 23.876 14.244 23.672 14.148 23.552C14.076 23.408 13.92 23.324 13.68 23.3C13.44 23.252 13.032 23.228 12.456 23.228H7.632V33.848H15.048C15.624 33.848 16.032 33.836 16.272 33.812C16.512 33.764 16.668 33.68 16.74 33.56C16.836 33.416 16.92 33.2 16.992 32.912L18.036 29.132ZM41.9068 34.064V35H33.4108V34.064L35.3908 33.848C35.7748 33.8 36.0028 33.704 36.0748 33.56C36.1468 33.416 36.1828 32.924 36.1828 32.084V23.12C36.1828 21.344 35.9068 20.096 35.3548 19.376C34.8268 18.632 34.0468 18.26 33.0148 18.26C32.2708 18.26 31.4308 18.5 30.4948 18.98C29.5828 19.46 28.7068 20.384 27.8668 21.752V32.084C27.8668 32.924 27.9028 33.416 27.9748 33.56C28.0468 33.704 28.2748 33.8 28.6588 33.848L30.6388 34.064V35H22.1428V34.064L24.1228 33.848C24.5068 33.8 24.7348 33.704 24.8068 33.56C24.8788 33.416 24.9148 32.924 24.9148 32.084V20.096C24.9148 19.256 24.8788 18.764 24.8068 18.62C24.7348 18.476 24.5068 18.38 24.1228 18.332L22.1428 18.152V17.18H27.6868V20.096C28.5268 18.968 29.4748 18.14 30.5308 17.612C31.6108 17.084 32.6788 16.82 33.7348 16.82C36.3268 16.82 37.9948 18.008 38.7388 20.384C39.6268 19.136 40.6108 18.236 41.6908 17.684C42.7948 17.108 43.8988 16.82 45.0028 16.82C46.7068 16.82 48.0268 17.372 48.9628 18.476C49.9228 19.556 50.4028 21.092 50.4028 23.084V32.084C50.4028 32.924 50.4388 33.416 50.5108 33.56C50.5828 33.704 50.8108 33.8 51.1948 33.848L53.1748 34.064V35H44.6788V34.064L46.6588 33.848C47.0428 33.8 47.2708 33.704 47.3428 33.56C47.4148 33.416 47.4508 32.924 47.4508 32.084V23.12C47.4508 21.344 47.1748 20.096 46.6228 19.376C46.0948 18.632 45.3148 18.26 44.2828 18.26C43.5388 18.26 42.6868 18.512 41.7268 19.016C40.7908 19.496 39.9028 20.444 39.0628 21.86C39.0868 22.052 39.0988 22.256 39.0988 22.472C39.1228 22.664 39.1348 22.868 39.1348 23.084V32.084C39.1348 32.924 39.1708 33.416 39.2428 33.56C39.3148 33.704 39.5428 33.8 39.9268 33.848L41.9068 34.064ZM55.008 18.116V17.18H60.552V20.06C61.272 18.932 62.076 18.116 62.964 17.612C63.876 17.084 64.884 16.82 65.988 16.82C68.052 16.82 69.648 17.6 70.776 19.16C71.928 20.72 72.504 22.904 72.504 25.712V26.432C72.504 29.168 71.844 31.34 70.524 32.948C69.204 34.556 67.368 35.36 65.016 35.36C63.336 35.36 61.908 34.844 60.732 33.812V39.752C60.732 40.568 60.768 41.048 60.84 41.192C60.912 41.36 61.14 41.468 61.524 41.516L64.224 41.696V42.668H55.008V41.696L56.988 41.516C57.372 41.468 57.6 41.36 57.672 41.192C57.744 41.048 57.78 40.568 57.78 39.752V20.096C57.78 19.256 57.744 18.764 57.672 18.62C57.6 18.476 57.372 18.38 56.988 18.332L55.008 18.116ZM65.52 18.116C64.776 18.116 63.996 18.356 63.18 18.836C62.388 19.316 61.572 20.288 60.732 21.752V32.048C61.764 33.464 63.132 34.172 64.836 34.172C66.396 34.172 67.524 33.584 68.22 32.408C68.916 31.208 69.264 29.576 69.264 27.512V24.632C69.264 22.376 68.94 20.732 68.292 19.7C67.644 18.644 66.72 18.116 65.52 18.116ZM76.1428 18.152V17.18H81.6868V20.06C82.5268 18.932 83.3668 18.116 84.2068 17.612C85.0708 17.084 85.9468 16.82 86.8348 16.82C87.6028 16.82 88.3228 17.048 88.9948 17.504C89.6668 17.96 90.2308 18.692 90.6868 19.7L88.3468 21.104C87.9868 20.24 87.5788 19.64 87.1228 19.304C86.6668 18.968 86.1628 18.8 85.6108 18.8C85.0108 18.8 84.4108 18.992 83.8108 19.376C83.2348 19.76 82.5868 20.48 81.8668 21.536V32.084C81.8668 32.924 81.9028 33.428 81.9748 33.596C82.0468 33.74 82.2748 33.824 82.6588 33.848L85.3588 34.064V35H76.1428V34.064L78.1228 33.848C78.5068 33.8 78.7348 33.704 78.8068 33.56C78.8788 33.416 78.9148 32.924 78.9148 32.084V20.096C78.9148 19.256 78.8788 18.764 78.8068 18.62C78.7348 18.476 78.5068 18.38 78.1228 18.332L76.1428 18.152ZM107.088 30.896C106.656 32.528 105.84 33.68 104.64 34.352C103.464 35.024 102.156 35.36 100.716 35.36C98.0522 35.36 96.0602 34.556 94.7402 32.948C93.4202 31.316 92.7602 29.144 92.7602 26.432V25.712C92.7602 23.024 93.3962 20.876 94.6682 19.268C95.9402 17.636 97.7882 16.82 100.212 16.82C101.508 16.82 102.684 17.084 103.74 17.612C104.82 18.14 105.672 18.92 106.296 19.952C106.944 20.984 107.268 22.268 107.268 23.804C107.268 24.524 107.196 25.28 107.052 26.072H96.0002V27.152C96.0002 29.672 96.3842 31.484 97.1522 32.588C97.9442 33.668 99.2162 34.208 100.968 34.208C102.072 34.208 102.984 33.92 103.704 33.344C104.448 32.768 104.94 31.772 105.18 30.356L107.088 30.896ZM100.212 17.972C98.7962 17.972 97.7402 18.512 97.0442 19.592C96.3482 20.672 96.0002 22.448 96.0002 24.92H104.1V24.812C104.148 24.5 104.184 24.2 104.208 23.912C104.232 23.6 104.244 23.324 104.244 23.084C104.244 21.284 103.872 19.988 103.128 19.196C102.384 18.38 101.412 17.972 100.212 17.972ZM114.878 13.148C114.302 13.148 113.822 12.968 113.438 12.608C113.078 12.224 112.898 11.732 112.898 11.132C112.898 10.556 113.078 10.088 113.438 9.728C113.822 9.368 114.302 9.188 114.878 9.188C115.454 9.188 115.922 9.368 116.282 9.728C116.666 10.088 116.858 10.556 116.858 11.132C116.858 11.732 116.666 12.224 116.282 12.608C115.922 12.968 115.454 13.148 114.878 13.148ZM110.666 18.152V17.18H116.39V32.084C116.39 32.924 116.426 33.416 116.498 33.56C116.57 33.704 116.798 33.8 117.182 33.848L119.162 34.064V35H110.666V34.064L112.646 33.848C113.03 33.8 113.258 33.704 113.33 33.56C113.402 33.416 113.438 32.924 113.438 32.084V20.096C113.438 19.256 113.402 18.764 113.33 18.62C113.258 18.476 113.03 18.38 112.646 18.332L110.666 18.152ZM141.548 34.064V35H133.052V34.064L135.032 33.848C135.416 33.8 135.644 33.704 135.716 33.56C135.788 33.416 135.824 32.924 135.824 32.084V23.12C135.824 21.344 135.536 20.096 134.96 19.376C134.384 18.632 133.556 18.26 132.476 18.26C131.684 18.26 130.808 18.5 129.848 18.98C128.888 19.46 127.988 20.396 127.148 21.788V32.084C127.148 32.924 127.184 33.416 127.256 33.56C127.328 33.704 127.556 33.8 127.94 33.848L129.92 34.064V35H121.424V34.064L123.404 33.848C123.788 33.8 124.016 33.704 124.088 33.56C124.16 33.416 124.196 32.924 124.196 32.084V20.096C124.196 19.256 124.16 18.764 124.088 18.62C124.016 18.476 123.788 18.38 123.404 18.332L121.424 18.152V17.18H126.968V20.096C127.832 18.944 128.804 18.116 129.884 17.612C130.988 17.084 132.092 16.82 133.196 16.82C134.972 16.82 136.34 17.372 137.3 18.476C138.284 19.556 138.776 21.092 138.776 23.084V32.084C138.776 32.924 138.812 33.416 138.884 33.56C138.956 33.704 139.184 33.8 139.568 33.848L141.548 34.064ZM155.523 31.328C155.163 32.72 154.599 33.74 153.831 34.388C153.063 35.036 152.079 35.36 150.879 35.36C149.727 35.36 148.791 35.108 148.071 34.604C147.351 34.076 146.823 33.392 146.487 32.552C146.151 31.712 145.983 30.836 145.983 29.924V20.096C145.983 19.256 145.947 18.764 145.875 18.62C145.827 18.476 145.599 18.38 145.191 18.332L143.211 18.152V17.18H145.983V12.464L148.935 11.852V17.18H154.803V18.332H148.935V30.212C148.935 31.724 149.139 32.768 149.547 33.344C149.979 33.92 150.543 34.208 151.239 34.208C151.935 34.208 152.463 33.944 152.823 33.416C153.207 32.888 153.483 32.024 153.651 30.824L155.523 31.328ZM172.901 30.896C172.469 32.528 171.653 33.68 170.453 34.352C169.277 35.024 167.969 35.36 166.529 35.36C163.865 35.36 161.873 34.556 160.553 32.948C159.233 31.316 158.573 29.144 158.573 26.432V25.712C158.573 23.024 159.209 20.876 160.481 19.268C161.753 17.636 163.601 16.82 166.025 16.82C167.321 16.82 168.497 17.084 169.553 17.612C170.633 18.14 171.485 18.92 172.109 19.952C172.757 20.984 173.081 22.268 173.081 23.804C173.081 24.524 173.009 25.28 172.865 26.072H161.813V27.152C161.813 29.672 162.197 31.484 162.965 32.588C163.757 33.668 165.029 34.208 166.781 34.208C167.885 34.208 168.797 33.92 169.517 33.344C170.261 32.768 170.753 31.772 170.993 30.356L172.901 30.896ZM166.025 17.972C164.609 17.972 163.553 18.512 162.857 19.592C162.161 20.672 161.813 22.448 161.813 24.92H169.913V24.812C169.961 24.5 169.997 24.2 170.021 23.912C170.045 23.6 170.057 23.324 170.057 23.084C170.057 21.284 169.685 19.988 168.941 19.196C168.197 18.38 167.225 17.972 166.025 17.972Z" fill="black"/>
</svg>
